<mxfile host="app.diagrams.net" agent="Mozilla/5.0 (Macintosh; Intel Mac OS X 10_15_7) AppleWebKit/537.36 (KHTML, like Gecko) Chrome/131.0.0.0 Safari/537.36" version="26.0.14">
  <diagram id="l8hXMBHkgcEJcSW0mbfh" name="Page-1">
    <mxGraphModel dx="1688" dy="1694" grid="1" gridSize="10" guides="1" tooltips="1" connect="1" arrows="1" fold="1" page="1" pageScale="1" pageWidth="1169" pageHeight="827" math="0" shadow="0">
      <root>
        <mxCell id="0" />
        <mxCell id="1" parent="0" />
        <mxCell id="qoB9_YU9yxLsBxpd8QnW-99" style="edgeStyle=orthogonalEdgeStyle;rounded=0;orthogonalLoop=1;jettySize=auto;html=1;entryX=0.5;entryY=1;entryDx=0;entryDy=0;" edge="1" parent="1" source="qoB9_YU9yxLsBxpd8QnW-37" target="qoB9_YU9yxLsBxpd8QnW-63">
          <mxGeometry relative="1" as="geometry">
            <Array as="points">
              <mxPoint x="220" y="820" />
              <mxPoint x="860" y="820" />
            </Array>
          </mxGeometry>
        </mxCell>
        <mxCell id="qoB9_YU9yxLsBxpd8QnW-37" value="Docker-Container" style="swimlane;whiteSpace=wrap;html=1;fontColor=default;" vertex="1" parent="1">
          <mxGeometry x="120" y="570" width="200" height="200" as="geometry" />
        </mxCell>
        <mxCell id="qoB9_YU9yxLsBxpd8QnW-3" value="Database" style="shape=cylinder3;whiteSpace=wrap;html=1;boundedLbl=1;backgroundOutline=1;size=15;" vertex="1" parent="qoB9_YU9yxLsBxpd8QnW-37">
          <mxGeometry x="65.5" y="80" width="60" height="80" as="geometry" />
        </mxCell>
        <mxCell id="qoB9_YU9yxLsBxpd8QnW-27" value="Docker" style="shape=image;html=1;verticalAlign=top;verticalLabelPosition=bottom;labelBackgroundColor=#ffffff;imageAspect=0;aspect=fixed;image=https://cdn1.iconfinder.com/data/icons/social-media-2106/24/social_media_social_media_logo_docker-128.png;fontColor=none;noLabel=1;" vertex="1" parent="qoB9_YU9yxLsBxpd8QnW-37">
          <mxGeometry x="180" width="20" height="20" as="geometry" />
        </mxCell>
        <mxCell id="qoB9_YU9yxLsBxpd8QnW-100" style="edgeStyle=orthogonalEdgeStyle;rounded=0;orthogonalLoop=1;jettySize=auto;html=1;" edge="1" parent="1" source="qoB9_YU9yxLsBxpd8QnW-49">
          <mxGeometry relative="1" as="geometry">
            <mxPoint x="760" y="700" as="targetPoint" />
          </mxGeometry>
        </mxCell>
        <mxCell id="qoB9_YU9yxLsBxpd8QnW-49" value="Docker-Container" style="swimlane;whiteSpace=wrap;html=1;fontColor=default;" vertex="1" parent="1">
          <mxGeometry x="446" y="600" width="200" height="200" as="geometry" />
        </mxCell>
        <mxCell id="qoB9_YU9yxLsBxpd8QnW-51" value="Docker" style="shape=image;html=1;verticalAlign=top;verticalLabelPosition=bottom;labelBackgroundColor=#ffffff;imageAspect=0;aspect=fixed;image=https://cdn1.iconfinder.com/data/icons/social-media-2106/24/social_media_social_media_logo_docker-128.png;fontColor=none;noLabel=1;" vertex="1" parent="qoB9_YU9yxLsBxpd8QnW-49">
          <mxGeometry x="180" width="20" height="20" as="geometry" />
        </mxCell>
        <mxCell id="qoB9_YU9yxLsBxpd8QnW-8" value="PACS-Server" style="sketch=0;outlineConnect=0;fontColor=#232F3E;gradientColor=none;fillColor=#232F3D;strokeColor=none;dashed=0;verticalLabelPosition=bottom;verticalAlign=top;align=center;html=1;fontSize=12;fontStyle=0;aspect=fixed;pointerEvents=1;shape=mxgraph.aws4.traditional_server;" vertex="1" parent="qoB9_YU9yxLsBxpd8QnW-49">
          <mxGeometry x="77.5" y="70" width="45" height="78" as="geometry" />
        </mxCell>
        <mxCell id="qoB9_YU9yxLsBxpd8QnW-97" style="edgeStyle=orthogonalEdgeStyle;rounded=0;orthogonalLoop=1;jettySize=auto;html=1;entryX=0.75;entryY=0;entryDx=0;entryDy=0;" edge="1" parent="1" source="qoB9_YU9yxLsBxpd8QnW-58" target="qoB9_YU9yxLsBxpd8QnW-63">
          <mxGeometry relative="1" as="geometry" />
        </mxCell>
        <mxCell id="qoB9_YU9yxLsBxpd8QnW-58" value="Docker-Container" style="swimlane;whiteSpace=wrap;html=1;fontColor=default;" vertex="1" parent="1">
          <mxGeometry x="860" y="290" width="200" height="200" as="geometry" />
        </mxCell>
        <mxCell id="qoB9_YU9yxLsBxpd8QnW-59" value="Docker" style="shape=image;html=1;verticalAlign=top;verticalLabelPosition=bottom;labelBackgroundColor=#ffffff;imageAspect=0;aspect=fixed;image=https://cdn1.iconfinder.com/data/icons/social-media-2106/24/social_media_social_media_logo_docker-128.png;fontColor=none;noLabel=1;" vertex="1" parent="qoB9_YU9yxLsBxpd8QnW-58">
          <mxGeometry x="180" width="20" height="20" as="geometry" />
        </mxCell>
        <mxCell id="qoB9_YU9yxLsBxpd8QnW-57" value="&lt;b&gt;Keycloak-Server&lt;/b&gt;" style="sketch=0;outlineConnect=0;fontColor=light-dark(#000000,#121212);fillColor=#000000;strokeColor=#314354;dashed=0;verticalLabelPosition=bottom;verticalAlign=top;align=center;html=1;fontSize=12;fontStyle=0;aspect=fixed;pointerEvents=1;shape=mxgraph.aws4.key_management_service_external_key_store;" vertex="1" parent="qoB9_YU9yxLsBxpd8QnW-58">
          <mxGeometry x="78" y="71" width="48" height="48" as="geometry" />
        </mxCell>
        <mxCell id="qoB9_YU9yxLsBxpd8QnW-63" value="Docker-Container" style="swimlane;whiteSpace=wrap;html=1;fontColor=default;" vertex="1" parent="1">
          <mxGeometry x="760" y="570" width="200" height="200" as="geometry" />
        </mxCell>
        <mxCell id="qoB9_YU9yxLsBxpd8QnW-64" value="Docker" style="shape=image;html=1;verticalAlign=top;verticalLabelPosition=bottom;labelBackgroundColor=#ffffff;imageAspect=0;aspect=fixed;image=https://cdn1.iconfinder.com/data/icons/social-media-2106/24/social_media_social_media_logo_docker-128.png;fontColor=none;noLabel=1;" vertex="1" parent="qoB9_YU9yxLsBxpd8QnW-63">
          <mxGeometry x="180" width="20" height="20" as="geometry" />
        </mxCell>
        <mxCell id="qoB9_YU9yxLsBxpd8QnW-15" value="Protocol" style="whiteSpace=wrap;html=1;shape=mxgraph.basic.document" vertex="1" parent="qoB9_YU9yxLsBxpd8QnW-63">
          <mxGeometry x="60.25" y="70" width="79.5" height="70" as="geometry" />
        </mxCell>
        <mxCell id="qoB9_YU9yxLsBxpd8QnW-78" value="&lt;span data-end=&quot;3456&quot; data-start=&quot;3442&quot;&gt;Monitoring&lt;/span&gt; und &lt;span data-end=&quot;3472&quot; data-start=&quot;3461&quot;&gt;Logging&lt;/span&gt;" style="text;html=1;align=center;verticalAlign=middle;resizable=0;points=[];autosize=1;strokeColor=none;fillColor=none;" vertex="1" parent="qoB9_YU9yxLsBxpd8QnW-63">
          <mxGeometry x="20" y="148" width="150" height="30" as="geometry" />
        </mxCell>
        <mxCell id="qoB9_YU9yxLsBxpd8QnW-95" style="edgeStyle=orthogonalEdgeStyle;rounded=0;orthogonalLoop=1;jettySize=auto;html=1;exitX=0.55;exitY=0.95;exitDx=0;exitDy=0;exitPerimeter=0;" edge="1" parent="1" source="qoB9_YU9yxLsBxpd8QnW-70" target="qoB9_YU9yxLsBxpd8QnW-73">
          <mxGeometry relative="1" as="geometry">
            <Array as="points">
              <mxPoint x="543" y="310" />
              <mxPoint x="543" y="310" />
            </Array>
          </mxGeometry>
        </mxCell>
        <mxCell id="qoB9_YU9yxLsBxpd8QnW-101" style="edgeStyle=orthogonalEdgeStyle;rounded=0;orthogonalLoop=1;jettySize=auto;html=1;" edge="1" parent="1" source="qoB9_YU9yxLsBxpd8QnW-70" target="qoB9_YU9yxLsBxpd8QnW-58">
          <mxGeometry relative="1" as="geometry" />
        </mxCell>
        <mxCell id="qoB9_YU9yxLsBxpd8QnW-70" value="" style="ellipse;shape=cloud;whiteSpace=wrap;html=1;fontColor=none;labelBackgroundColor=default;noLabel=1;fillColor=none;strokeColor=default;" vertex="1" parent="1">
          <mxGeometry x="340" y="-10" width="370" height="270" as="geometry" />
        </mxCell>
        <mxCell id="qoB9_YU9yxLsBxpd8QnW-71" value="Browser" style="text;html=1;align=center;verticalAlign=middle;resizable=0;points=[];autosize=1;strokeColor=none;fillColor=none;fontSize=16;" vertex="1" parent="1">
          <mxGeometry x="400" y="90" width="80" height="30" as="geometry" />
        </mxCell>
        <mxCell id="qoB9_YU9yxLsBxpd8QnW-92" style="edgeStyle=orthogonalEdgeStyle;rounded=0;orthogonalLoop=1;jettySize=auto;html=1;entryX=0;entryY=0.5;entryDx=0;entryDy=0;endArrow=classic;startFill=0;endFill=1;" edge="1" parent="1" source="qoB9_YU9yxLsBxpd8QnW-73" target="qoB9_YU9yxLsBxpd8QnW-58">
          <mxGeometry relative="1" as="geometry" />
        </mxCell>
        <mxCell id="qoB9_YU9yxLsBxpd8QnW-94" style="edgeStyle=orthogonalEdgeStyle;rounded=0;orthogonalLoop=1;jettySize=auto;html=1;entryX=0.5;entryY=0;entryDx=0;entryDy=0;" edge="1" parent="1" source="qoB9_YU9yxLsBxpd8QnW-73" target="qoB9_YU9yxLsBxpd8QnW-37">
          <mxGeometry relative="1" as="geometry" />
        </mxCell>
        <mxCell id="qoB9_YU9yxLsBxpd8QnW-73" value="Docker-Container" style="swimlane;whiteSpace=wrap;html=1;fontColor=default;" vertex="1" parent="1">
          <mxGeometry x="446" y="320" width="200" height="200" as="geometry" />
        </mxCell>
        <mxCell id="qoB9_YU9yxLsBxpd8QnW-74" value="Docker" style="shape=image;html=1;verticalAlign=top;verticalLabelPosition=bottom;labelBackgroundColor=#ffffff;imageAspect=0;aspect=fixed;image=https://cdn1.iconfinder.com/data/icons/social-media-2106/24/social_media_social_media_logo_docker-128.png;fontColor=none;noLabel=1;" vertex="1" parent="qoB9_YU9yxLsBxpd8QnW-73">
          <mxGeometry x="180" width="20" height="20" as="geometry" />
        </mxCell>
        <mxCell id="qoB9_YU9yxLsBxpd8QnW-75" value="Web-Server" style="sketch=0;outlineConnect=0;fontColor=#232F3E;gradientColor=none;fillColor=#232F3D;strokeColor=none;dashed=0;verticalLabelPosition=bottom;verticalAlign=top;align=center;html=1;fontSize=12;fontStyle=0;aspect=fixed;pointerEvents=1;shape=mxgraph.aws4.traditional_server;" vertex="1" parent="qoB9_YU9yxLsBxpd8QnW-73">
          <mxGeometry x="77.5" y="61" width="45" height="78" as="geometry" />
        </mxCell>
        <mxCell id="qoB9_YU9yxLsBxpd8QnW-76" value="Spring Boot" style="text;html=1;align=center;verticalAlign=middle;resizable=0;points=[];autosize=1;strokeColor=none;fillColor=none;" vertex="1" parent="qoB9_YU9yxLsBxpd8QnW-73">
          <mxGeometry x="55" y="168" width="90" height="30" as="geometry" />
        </mxCell>
        <mxCell id="qoB9_YU9yxLsBxpd8QnW-9" value="&lt;font style=&quot;color: light-dark(rgb(0, 0, 0), rgb(18, 18, 18));&quot;&gt;Web-Client&lt;/font&gt;" style="sketch=0;outlineConnect=0;dashed=0;verticalLabelPosition=bottom;verticalAlign=top;align=center;html=1;fontSize=12;fontStyle=0;aspect=fixed;pointerEvents=1;shape=mxgraph.aws4.client;fillColor=#000000;fontColor=#ffffff;strokeColor=#432D57;fontFamily=Helvetica;" vertex="1" parent="1">
          <mxGeometry x="507" y="100" width="78" height="76" as="geometry" />
        </mxCell>
        <mxCell id="qoB9_YU9yxLsBxpd8QnW-82" value="REST" style="text;html=1;align=center;verticalAlign=middle;resizable=0;points=[];autosize=1;strokeColor=none;fillColor=none;" vertex="1" parent="1">
          <mxGeometry x="540" y="260" width="60" height="30" as="geometry" />
        </mxCell>
        <mxCell id="qoB9_YU9yxLsBxpd8QnW-72" value="OIDC (OpenID Connect)" style="text;html=1;align=center;verticalAlign=middle;resizable=0;points=[];autosize=1;strokeColor=none;fillColor=none;" vertex="1" parent="1">
          <mxGeometry x="680" y="350" width="150" height="30" as="geometry" />
        </mxCell>
        <mxCell id="qoB9_YU9yxLsBxpd8QnW-93" style="edgeStyle=orthogonalEdgeStyle;rounded=0;orthogonalLoop=1;jettySize=auto;html=1;entryX=0.5;entryY=0;entryDx=0;entryDy=0;endArrow=classic;startFill=0;endFill=1;" edge="1" parent="1" source="qoB9_YU9yxLsBxpd8QnW-76" target="qoB9_YU9yxLsBxpd8QnW-49">
          <mxGeometry relative="1" as="geometry">
            <Array as="points">
              <mxPoint x="546" y="540" />
              <mxPoint x="546" y="540" />
            </Array>
          </mxGeometry>
        </mxCell>
        <mxCell id="qoB9_YU9yxLsBxpd8QnW-77" value="WADO-URI" style="text;html=1;align=center;verticalAlign=middle;resizable=0;points=[];autosize=1;strokeColor=none;fillColor=none;" vertex="1" parent="1">
          <mxGeometry x="540" y="560" width="90" height="30" as="geometry" />
        </mxCell>
        <mxCell id="qoB9_YU9yxLsBxpd8QnW-96" style="edgeStyle=orthogonalEdgeStyle;rounded=0;orthogonalLoop=1;jettySize=auto;html=1;entryX=0.172;entryY=0.023;entryDx=0;entryDy=0;entryPerimeter=0;" edge="1" parent="1" source="qoB9_YU9yxLsBxpd8QnW-73" target="qoB9_YU9yxLsBxpd8QnW-63">
          <mxGeometry relative="1" as="geometry" />
        </mxCell>
      </root>
    </mxGraphModel>
  </diagram>
</mxfile>
